<svg width="22" height="16" viewBox="0 0 22 16" fill="none" xmlns="http://www.w3.org/2000/svg">
<path d="M18.6881 1.33005C17.3581 0.710046 15.9181 0.260046 14.4181 4.59982e-05C14.4049 -0.000374605 14.3919 0.00209348 14.3798 0.00727676C14.3677 0.01246 14.3569 0.0202326 14.3481 0.0300462C14.1681 0.360046 13.9581 0.790046 13.8181 1.12005C12.2271 0.880046 10.6091 0.880046 9.01809 1.12005C8.87809 0.780046 8.66809 0.360046 8.47809 0.0300462C8.46809 0.0100462 8.43809 4.59982e-05 8.40809 4.59982e-05C6.90809 0.260046 5.47809 0.710046 4.13809 1.33005C4.12809 1.33005 4.11809 1.34005 4.10809 1.35005C1.38809 5.42005 0.638086 9.38004 1.00809 13.3C1.00809 13.32 1.01809 13.34 1.03809 13.35C2.83809 14.67 4.56809 15.47 6.27809 16C6.30809 16.01 6.33809 16 6.34809 15.98C6.74809 15.43 7.10809 14.85 7.41809 14.24C7.43809 14.2 7.41809 14.16 7.37809 14.15C6.80809 13.93 6.26809 13.67 5.73809 13.37C5.69809 13.35 5.69809 13.29 5.72809 13.26C5.83809 13.18 5.94809 13.09 6.05809 13.01C6.07809 12.99 6.10809 12.99 6.12809 13C9.56809 14.57 13.2781 14.57 16.6781 13C16.6981 12.99 16.7281 12.99 16.7481 13.01C16.8581 13.1 16.9681 13.18 17.0781 13.27C17.1181 13.3 17.1181 13.36 17.0681 13.38C16.5481 13.69 15.9981 13.94 15.4281 14.16C15.3881 14.17 15.3781 14.22 15.3881 14.25C15.7081 14.86 16.0681 15.44 16.4581 15.99C16.4881 16 16.5181 16.01 16.5481 16C18.2681 15.47 19.9981 14.67 21.7981 13.35C21.8181 13.34 21.8281 13.32 21.8281 13.3C22.2681 8.77004 21.0981 4.84005 18.7281 1.35005C18.7181 1.34005 18.7081 1.33005 18.6881 1.33005ZM7.93809 10.91C6.90809 10.91 6.04809 9.96005 6.04809 8.79005C6.04809 7.62005 6.88809 6.67005 7.93809 6.67005C8.99809 6.67005 9.83809 7.63005 9.82809 8.79005C9.82809 9.96005 8.98809 10.91 7.93809 10.91ZM14.9081 10.91C13.8781 10.91 13.0181 9.96005 13.0181 8.79005C13.0181 7.62005 13.8581 6.67005 14.9081 6.67005C15.9681 6.67005 16.8081 7.63005 16.7981 8.79005C16.7981 9.96005 15.9681 10.91 14.9081 10.91Z" fill="white"/>
</svg>
