<svg width="100%" height="100%" viewBox="0 0 662 382" fill="none" xmlns="http://www.w3.org/2000/svg">
<path d="M50.5471 219.631C42.3837 219.631 34.7897 217.733 27.7653 213.936C20.7409 210.044 13.9539 204.728 7.40409 197.988C7.21424 197.799 6.97693 197.704 6.69216 197.704C5.83784 197.704 4.8886 198.226 3.84443 199.27L1.99341 197.276L21.7851 178.624L23.6361 180.617C23.0666 181.092 22.5445 181.756 22.0699 182.611C21.5953 183.465 21.5003 184.082 21.7851 184.462C30.6131 195.663 40.2479 201.263 50.6895 201.263C54.2967 201.263 57.5241 200.551 60.3718 199.127C63.3145 197.704 65.5926 195.9 67.2063 193.717C68.8201 191.439 69.6269 189.113 69.6269 186.74C69.6269 181.139 64.7383 176.536 54.9611 172.928L37.4476 166.379C30.4232 163.816 24.9176 160.303 20.9308 155.842C17.0389 151.381 15.093 146.017 15.093 139.752C15.093 133.582 16.5168 128.219 19.3645 123.663C22.3072 119.011 26.4364 115.452 31.7522 112.984C37.0679 110.516 43.238 109.282 50.2624 109.282C56.9071 109.282 62.4601 110.326 66.9216 112.414C71.4779 114.408 76.3191 117.493 81.445 121.669C81.5399 121.764 81.7298 121.812 82.0145 121.812C82.4891 121.812 83.0112 121.669 83.5808 121.385C84.2452 121.005 84.7673 120.625 85.147 120.245L86.998 122.096L69.3421 139.468L67.4911 137.474C67.9657 137 68.298 136.478 68.4878 135.908C68.7726 135.243 68.7251 134.769 68.3454 134.484C62.1754 129.548 56.0528 127.08 49.9776 127.08C45.1365 127.08 41.292 128.219 38.4443 130.497C35.5966 132.681 34.1727 135.481 34.1727 138.898C34.1727 141.936 34.9321 144.261 36.4509 145.875C38.0646 147.489 40.4852 148.865 43.7126 150.004L60.9414 156.269C66.9216 158.452 71.9051 160.778 75.8919 163.246C79.8787 165.619 83.0587 168.799 85.4318 172.786C87.8049 176.678 88.9915 181.567 88.9915 187.452C88.9915 193.147 87.4727 198.463 84.4351 203.399C81.4924 208.24 77.0785 212.18 71.1932 215.217C65.4028 218.16 58.5208 219.631 50.5471 219.631Z" fill="white"/>
<path d="M306.969 200.954V217.721H304.978C304.978 217.232 304.873 216.743 304.663 216.254C304.454 215.765 304.174 215.52 303.825 215.52H250.486V213.529C250.975 213.529 251.464 213.424 251.953 213.215C252.512 213.005 252.791 212.726 252.791 212.376V140.07C252.791 139.721 252.512 139.441 251.953 139.232C251.464 139.022 250.975 138.917 250.486 138.917V136.926H301.1C301.45 136.926 301.729 136.682 301.939 136.193C302.148 135.704 302.253 135.214 302.253 134.725H304.244V151.492H302.253C302.253 151.003 302.148 150.514 301.939 150.025C301.729 149.536 301.45 149.292 301.1 149.292H266.309V167.735H295.965C296.315 167.735 296.594 167.49 296.804 167.001C297.013 166.512 297.118 166.023 297.118 165.534H299.109V182.301H297.118C297.118 181.812 297.013 181.323 296.804 180.834C296.594 180.345 296.315 180.1 295.965 180.1H266.309V203.155H303.825C304.174 203.155 304.454 202.91 304.663 202.421C304.873 201.932 304.978 201.443 304.978 200.954H306.969ZM396.5 212.9C396.78 213.389 397.723 213.634 399.33 213.634V215.625H378.057V213.634C379.035 213.634 379.699 213.459 380.048 213.11C380.397 212.761 380.432 212.411 380.153 212.062L362.548 182.406H351.754V212.481C351.754 212.831 352.034 213.11 352.593 213.32C353.151 213.529 353.675 213.634 354.164 213.634V215.625H335.302V213.634C335.791 213.634 336.315 213.529 336.874 213.32C337.433 213.11 337.712 212.831 337.712 212.481V140.175C337.712 139.825 337.433 139.546 336.874 139.336C336.385 139.127 335.896 139.022 335.407 139.022V137.031H367.368C376.59 137.031 383.541 139.127 388.222 143.318C392.972 147.44 395.348 152.785 395.348 159.352C395.348 165.43 393.671 170.32 390.318 174.023C387.034 177.725 382.773 180.205 377.533 181.463L396.5 212.9ZM351.754 149.187V169.726H368.94C373.272 169.726 376.52 168.713 378.686 166.687C380.852 164.661 381.934 162.216 381.934 159.352C381.934 156.557 380.712 154.182 378.267 152.226C375.821 150.2 372.817 149.187 369.255 149.187H351.754ZM498.428 139.022C497.939 139.022 497.415 139.127 496.856 139.336C496.297 139.546 496.018 139.825 496.018 140.175V212.481C496.018 212.831 496.262 213.11 496.751 213.32C497.31 213.529 497.834 213.634 498.323 213.634V215.625H479.88V213.634C481.557 213.634 482.08 213.18 481.452 212.272L444.25 160.923V212.481C444.25 212.831 444.53 213.11 445.089 213.32C445.648 213.529 446.207 213.634 446.766 213.634V215.625H427.589V213.634C428.147 213.634 428.706 213.529 429.265 213.32C429.824 213.11 430.104 212.831 430.104 212.481V140.175C430.104 139.825 429.824 139.546 429.265 139.336C428.776 139.127 428.287 139.022 427.798 139.022V137.031H446.766V139.022C445.089 139.022 444.565 139.476 445.194 140.384L483.443 193.409L482.08 140.175C482.08 139.825 481.766 139.546 481.137 139.336C480.578 139.127 480.054 139.022 479.565 139.022V137.031H498.428V139.022ZM532.419 140.175C532.419 139.825 532.14 139.546 531.581 139.336C531.022 139.127 530.463 139.022 529.904 139.022V137.031H549.186V139.022C548.627 139.022 548.068 139.127 547.509 139.336C546.95 139.546 546.671 139.825 546.671 140.175V212.481C546.671 212.831 546.95 213.11 547.509 213.32C548.068 213.529 548.627 213.634 549.186 213.634V215.625H529.904V213.634C530.463 213.634 531.022 213.529 531.581 213.32C532.14 213.11 532.419 212.831 532.419 212.481V140.175ZM657.455 212.691C657.665 213.32 658.503 213.634 659.97 213.634V215.625H638.697V213.634C639.605 213.634 640.234 213.424 640.583 213.005C640.933 212.586 641.003 212.167 640.793 211.748L635.03 196.972H600.867L595.104 211.748L594.999 212.062C594.999 212.481 595.174 212.865 595.523 213.215C595.942 213.494 596.466 213.634 597.095 213.634V215.625H576.451V213.634C577.848 213.634 578.686 213.32 578.966 212.691L608.098 141.851C608.308 141.432 608.412 141.048 608.412 140.699C608.412 140.07 608.133 139.651 607.574 139.441C607.015 139.162 606.421 139.022 605.792 139.022V137.031H630.209V139.022C629.58 139.022 628.986 139.162 628.428 139.441C627.869 139.651 627.589 140.07 627.589 140.699C627.589 141.048 627.694 141.432 627.904 141.851L657.455 212.691ZM617.948 153.378L605.583 184.921H630.314L617.948 153.378Z" fill="white"/>
<path d="M170.252 200.347V217.113H168.261C168.261 216.624 168.156 216.135 167.946 215.646C167.737 215.157 167.457 214.913 167.108 214.913H113.769V212.922C114.258 212.922 114.747 212.817 115.236 212.607C115.795 212.398 116.074 212.118 116.074 211.769V139.462C116.074 139.113 115.795 138.834 115.236 138.624C114.747 138.415 114.258 138.31 113.769 138.31V136.319H164.384C164.733 136.319 165.012 136.074 165.222 135.585C165.431 135.096 165.536 134.607 165.536 134.118H167.527V150.885H165.536C165.536 150.396 165.431 149.907 165.222 149.418C165.012 148.929 164.733 148.684 164.384 148.684H129.593V167.128H159.249C159.598 167.128 159.877 166.883 160.087 166.394C160.297 165.905 160.401 165.416 160.401 164.927H162.392V181.694H160.401C160.401 181.205 160.297 180.716 160.087 180.227C159.877 179.738 159.598 179.493 159.249 179.493H129.593V202.547H167.108C167.457 202.547 167.737 202.303 167.946 201.814C168.156 201.325 168.261 200.836 168.261 200.347H170.252Z" fill="white"/>
<path d="M280.317 295.642C280.406 295.797 280.704 295.874 281.211 295.874V296.503H274.492V295.874C274.801 295.874 275.01 295.819 275.121 295.709C275.231 295.598 275.242 295.488 275.154 295.378L269.593 286.01H266.184V295.51C266.184 295.62 266.272 295.709 266.449 295.775C266.625 295.841 266.791 295.874 266.945 295.874V296.503H260.987V295.874C261.141 295.874 261.307 295.841 261.484 295.775C261.66 295.709 261.748 295.62 261.748 295.51V272.671C261.748 272.561 261.66 272.472 261.484 272.406C261.329 272.34 261.175 272.307 261.02 272.307V271.678H271.116C274.028 271.678 276.224 272.34 277.703 273.664C279.203 274.966 279.953 276.654 279.953 278.728C279.953 280.648 279.424 282.193 278.365 283.362C277.327 284.532 275.981 285.315 274.326 285.712L280.317 295.642ZM266.184 275.518V282.005H271.612C272.98 282.005 274.006 281.685 274.69 281.045C275.374 280.405 275.717 279.633 275.717 278.728C275.717 277.846 275.33 277.095 274.558 276.477C273.786 275.837 272.837 275.518 271.711 275.518H266.184ZM351.008 291.869V297.165H350.379C350.379 297.01 350.346 296.856 350.28 296.702C350.214 296.547 350.125 296.47 350.015 296.47H333.167V295.841C333.321 295.841 333.476 295.808 333.63 295.742C333.807 295.675 333.895 295.587 333.895 295.477V272.638C333.895 272.527 333.807 272.439 333.63 272.373C333.476 272.307 333.321 272.274 333.167 272.274V271.645H349.154C349.265 271.645 349.353 271.568 349.419 271.413C349.485 271.259 349.518 271.104 349.518 270.95H350.147V276.246H349.518C349.518 276.091 349.485 275.937 349.419 275.782C349.353 275.628 349.265 275.551 349.154 275.551H338.165V281.376H347.532C347.643 281.376 347.731 281.299 347.797 281.145C347.863 280.99 347.897 280.836 347.897 280.681H348.525V285.977H347.897C347.897 285.823 347.863 285.668 347.797 285.514C347.731 285.359 347.643 285.282 347.532 285.282H338.165V292.564H350.015C350.125 292.564 350.214 292.487 350.28 292.332C350.346 292.178 350.379 292.023 350.379 291.869H351.008ZM427.25 295.576C427.316 295.775 427.581 295.874 428.044 295.874V296.503H421.325V295.874C421.612 295.874 421.81 295.808 421.921 295.675C422.031 295.543 422.053 295.411 421.987 295.278L420.166 290.611H409.376L407.555 295.278L407.522 295.378C407.522 295.51 407.577 295.631 407.688 295.742C407.82 295.83 407.985 295.874 408.184 295.874V296.503H401.663V295.874C402.105 295.874 402.369 295.775 402.458 295.576L411.66 273.201C411.726 273.068 411.759 272.947 411.759 272.836C411.759 272.638 411.671 272.505 411.494 272.439C411.318 272.351 411.13 272.307 410.931 272.307V271.678H418.644V272.307C418.445 272.307 418.257 272.351 418.081 272.439C417.904 272.505 417.816 272.638 417.816 272.836C417.816 272.947 417.849 273.068 417.915 273.201L427.25 295.576ZM414.771 276.842L410.865 286.805H418.677L414.771 276.842ZM496.441 291.77V297.198H495.812C495.812 297.066 495.779 296.911 495.713 296.735C495.647 296.58 495.559 296.503 495.448 296.503H479.726V295.874C479.88 295.874 480.035 295.841 480.189 295.775C480.366 295.709 480.454 295.62 480.454 295.51V272.671C480.454 272.561 480.366 272.472 480.189 272.406C480.013 272.34 479.847 272.307 479.693 272.307V271.678H485.651V272.307C485.496 272.307 485.331 272.34 485.154 272.406C484.978 272.472 484.889 272.561 484.889 272.671V292.465H495.448C495.559 292.465 495.647 292.387 495.713 292.233C495.779 292.056 495.812 291.902 495.812 291.77H496.441ZM577.435 295.51C577.435 295.62 577.512 295.709 577.667 295.775C577.843 295.841 578.02 295.874 578.196 295.874V296.503H572.404V295.874C572.58 295.874 572.746 295.841 572.9 295.775C573.077 295.709 573.165 295.62 573.165 295.51V276.544L563.467 297.761L553.802 276.477V295.51C553.802 295.62 553.879 295.709 554.033 295.775C554.21 295.841 554.386 295.874 554.563 295.874V296.503H548.737V295.874C548.914 295.874 549.079 295.841 549.234 295.775C549.41 295.709 549.499 295.62 549.499 295.51V272.671C549.499 272.561 549.41 272.472 549.234 272.406C549.079 272.34 548.925 272.307 548.77 272.307V271.678H557.31V272.307C557.045 272.307 556.869 272.373 556.781 272.505C556.714 272.616 556.714 272.748 556.781 272.903L563.5 288.526L570.318 272.903C570.363 272.77 570.296 272.638 570.12 272.505C569.943 272.373 569.723 272.307 569.458 272.307V271.678H578.163V272.307C578.009 272.307 577.843 272.34 577.667 272.406C577.512 272.472 577.435 272.561 577.435 272.671V295.51ZM641.26 297.132C639.362 297.132 637.596 296.69 635.964 295.808C634.331 294.903 632.753 293.667 631.23 292.101C631.186 292.056 631.131 292.034 631.065 292.034C630.866 292.034 630.645 292.156 630.403 292.399L629.972 291.935L634.573 287.599L635.004 288.062C634.871 288.173 634.75 288.327 634.64 288.526C634.529 288.724 634.507 288.868 634.573 288.956C636.626 291.56 638.865 292.862 641.293 292.862C642.131 292.862 642.881 292.696 643.543 292.365C644.227 292.034 644.757 291.615 645.132 291.108C645.507 290.578 645.695 290.037 645.695 289.486C645.695 288.184 644.558 287.114 642.286 286.275L638.214 284.752C636.581 284.157 635.302 283.34 634.375 282.303C633.47 281.266 633.018 280.019 633.018 278.563C633.018 277.128 633.349 275.882 634.011 274.822C634.695 273.741 635.655 272.914 636.89 272.34C638.126 271.766 639.56 271.479 641.193 271.479C642.738 271.479 644.029 271.722 645.066 272.208C646.125 272.671 647.251 273.388 648.442 274.359C648.464 274.381 648.508 274.392 648.575 274.392C648.685 274.392 648.806 274.359 648.939 274.293C649.093 274.205 649.215 274.116 649.303 274.028L649.733 274.458L645.629 278.497L645.198 278.033C645.309 277.923 645.386 277.801 645.43 277.669C645.496 277.515 645.485 277.404 645.397 277.338C643.963 276.191 642.539 275.617 641.127 275.617C640.002 275.617 639.108 275.882 638.446 276.411C637.784 276.919 637.453 277.57 637.453 278.364C637.453 279.07 637.63 279.611 637.983 279.986C638.358 280.361 638.92 280.681 639.671 280.946L643.676 282.402C645.066 282.91 646.225 283.45 647.151 284.024C648.078 284.576 648.817 285.315 649.369 286.242C649.921 287.147 650.197 288.283 650.197 289.651C650.197 290.975 649.843 292.211 649.137 293.358C648.453 294.484 647.427 295.4 646.059 296.106C644.713 296.79 643.113 297.132 641.26 297.132Z" fill="white"/>
<path fill-rule="evenodd" clip-rule="evenodd" d="M200.218 75.3156H214.074L140.002 75.3854L142.487 91.1253L194.705 109.745V296.353L216.247 381.126V116.002L285.804 91.1253L288.289 75.3855L214.382 75.3156H228.286V45.3765L244.337 29.5249L214.252 0L184.357 29.5249L200.218 45.3765V75.3156ZM214.253 109.455V75.3156H214.252H214.252V109.454L214.253 109.455ZM224.011 29.2925L214.347 12.554L204.683 29.2925L214.347 46.031L224.011 29.2925Z" fill="white"/>
<path d="M250.218 236.962H661.171V241.105H660.413C658.618 241.105 657.162 242.56 657.162 244.355V245.247H254.227V244.355C254.227 242.56 252.772 241.105 250.976 241.105H250.218V236.962Z" fill="white"/>
<path d="M1.86035 237.13H170.641V241.315H170.172C168.376 241.315 166.921 242.77 166.921 244.565V245.499H5.58003V244.565C5.58003 242.77 4.12466 241.315 2.32938 241.315H1.86035V237.13Z" fill="white"/>
<path d="M204.393 29.3759L214.323 12.4121L224.253 29.3759L214.323 46.3396L204.393 29.3759Z" fill="url(#paint0_linear_1214_3314)"/>
<defs>
<linearGradient id="paint0_linear_1214_3314" x1="214.178" y1="29.4521" x2="223.265" y2="54.0849" gradientUnits="userSpaceOnUse">
<stop stop-color="#7B22F6"/>
<stop offset="0.449" stop-color="#4D74E0"/>
<stop offset="0.643564" stop-color="#24BECD"/>
</linearGradient>
</defs>
</svg>